<svg xmlns="http://www.w3.org/2000/svg" viewBox="0 0 1000 460"><path d="M52.5,189.34H67.91l21.5,40.83h.69l21.51-40.83h14.72v80.28H113.91V208.2h-.58l-6.32,13-17.6,32.09L71.82,221.2l-6.33-13h-.57v61.42H52.5Z" style="fill:#ffa11a"/><path d="M140,239.72c0-19.1,10.47-31.29,27.49-31.29,17.59,0,26.56,13.23,26.56,29.79v4.71H153v2c0,9.2,5.63,15.76,15.75,15.76,7.36,0,12.31-3.45,15.76-9l7.36,7.24C187.39,266.17,178.65,271,167.5,271,150.48,271,140,258.81,140,239.72Zm13-5.87v.8h27.83v-1.14c0-9.21-5.06-15.3-13.34-15.3C158.87,218.21,153,224.65,153,233.85Z" style="fill:#ffa11a"/><path d="M206.83,269.62V209.81h12.53v11.5h.58c1.72-6.09,6.9-11.5,16.44-11.5h3.34v12.08h-4.95c-9.89,0-15.41,3.33-15.41,9.54v38.19Z" style="fill:#ffa11a"/><path d="M245.12,239.72c0-19.1,9.89-31.29,27.14-31.29,12,0,19.55,5.87,23.12,14.72L285,228c-1.73-5.52-6-9.08-12.77-9.08-9.2,0-13.91,6.32-13.91,15.53v10.69c0,9.2,4.71,15.53,13.91,15.53,7.25,0,11.5-3.91,14-9.89l9.55,5.06c-3.91,9.77-12.08,15.18-23.58,15.18C255,271,245.12,258.81,245.12,239.72Z" style="fill:#ffa11a"/><path d="M342.87,259.73h-.46c-2.18,5.86-6.9,11.27-16.79,11.27-12.3,0-19.55-8.4-19.55-23.12V209.81h12.54v36.46c0,9.09,3.79,13.92,11.5,13.92,6.44,0,12.76-3.34,12.76-10.35v-40h12.54v59.81H342.87Z" style="fill:#ffa11a"/><path d="M372.19,269.62V209.81h12.54v11.5h.58c1.72-6.09,6.9-11.5,16.44-11.5h3.34v12.08h-4.95c-9.89,0-15.41,3.33-15.41,9.54v38.19Z" style="fill:#ffa11a"/><path d="M413.94,192.56v-1.95c0-3.8,2.3-6.56,7.47-6.56s7.36,2.76,7.36,6.56v1.95c0,3.8-2.18,6.56-7.36,6.56S413.94,196.36,413.94,192.56Zm1.15,17.25h12.53v59.81H415.09Z" style="fill:#ffa11a"/><path d="M480.64,259.73h-.46C478,265.59,473.28,271,463.39,271c-12.31,0-19.55-8.4-19.55-23.12V209.81h12.53v36.46c0,9.09,3.8,13.92,11.5,13.92,6.44,0,12.77-3.34,12.77-10.35v-40h12.54v59.81H480.64Z" style="fill:#ffa11a"/><path d="M504.67,259.73l8.05-7.36c4.37,5.29,9.78,8.51,16.91,8.51s10.92-3,10.92-8c0-3.8-2.3-6.67-8.51-7.48l-5.52-.69c-12.19-1.49-19.66-6.78-19.66-17.83,0-11.61,9.08-18.4,22.19-18.4,10.81,0,16.91,3.57,22.31,9.55l-7.7,7.36a19.06,19.06,0,0,0-14.61-6.79c-6.9,0-10.12,3-10.12,7.48s2.88,6.67,9.2,7.7l5.52.7c13.11,1.95,19,7.7,19,17.36,0,11.5-9.32,19.21-23.69,19.21C517.67,271,510.31,266.74,504.67,259.73Z" style="fill:#ffa11a"/><path d="M942.84,132.1a34.85,34.85,0,0,0-55.48-6.66L806.75,78.87a34.9,34.9,0,1,0-67,0L659.1,125.41a34.92,34.92,0,1,0-33.51,58.05V315.24l114.14,65.9a34.9,34.9,0,1,0,67,0l114-65.89V183.48a34.87,34.87,0,0,0,22.05-51.38ZM748,93.24l1.07,1.07-35.76,61.95,12.23,12,37.91-65.66a35,35,0,0,0,19.52,0l72.68,126,12.23-12L797.38,94.32c.36-.35.72-.71,1.07-1.07l80.63,46.58a34.83,34.83,0,0,0,25.11,43.59V302.15h-262V183.45a34.84,34.84,0,0,0,25.2-43.66ZM773.24,356A34.79,34.79,0,0,0,748,366.76l-83.16-48H881.54l-83.09,48A34.82,34.82,0,0,0,773.24,356Z" style="fill:#864f00"/><path d="M929.94,280.2a34.89,34.89,0,0,0-27.2-3.26l-34.83-60.38-46.58,45.78-108-106.08L643.66,276.93A34.89,34.89,0,1,0,664.24,293a35.27,35.27,0,0,0-6.17-7.82L717,183.12,821.33,285.61l42.92-42.17,24.1,41.77a34.92,34.92,0,1,0,41.59-5Z" style="fill:#ffa11a"/></svg>